<?xml version="1.0" encoding="utf-8"?>
<!-- Generator: Adobe Illustrator 28.2.0, SVG Export Plug-In . SVG Version: 6.00 Build 0)  -->
<svg version="1.2" baseProfile="tiny" xmlns="http://www.w3.org/2000/svg" xmlns:xlink="http://www.w3.org/1999/xlink" x="0px"
	 y="0px" viewBox="0 0 612 792" overflow="visible" xml:space="preserve">
<g id="Layer_2" display="none">
	<image display="inline" width="1199" height="1089" xlink:href="2D15644.jpg"  transform="matrix(0.4148 0 0 0.4148 67 161.8333)">
	</image>
</g>
<g id="Layer_3" display="none">
	<circle display="inline" fill="none" stroke="#ED1C24" stroke-miterlimit="10" cx="306.3" cy="408.1" r="191.1"/>
	<circle display="inline" fill="none" stroke="#ED1C24" stroke-miterlimit="10" cx="240.8" cy="405.3" r="69.3"/>
	<circle display="inline" fill="none" stroke="#ED1C24" stroke-miterlimit="10" cx="230.8" cy="415.3" r="68.2"/>
	<circle display="inline" fill="none" stroke="#ED1C24" stroke-miterlimit="10" cx="230.8" cy="415.3" r="45.7"/>
	<circle display="inline" fill="none" stroke="#ED1C24" stroke-miterlimit="10" cx="222.8" cy="423.3" r="43.8"/>
	<path display="inline" fill="none" stroke="#ED1C24" stroke-miterlimit="10" d="M438.7,273L290.3,374.7c-5.4,3.7-13,2.3-16.7-3.1
		l-5.7-8.3c-3.7-5.4-2.3-13,3.1-16.7l148.4-101.7c5.4-3.7,13-2.3,16.7,3.1l5.7,8.3C445.5,261.8,444.1,269.3,438.7,273z"/>
	<path display="inline" fill="none" stroke="#ED1C24" stroke-miterlimit="10" d="M407.6,568.3l-9.1-42.9c-2.4-11.1-9.3-20.9-19-26.8
		l-89.4-54.6l9.4-44.8l112.3,69c14.5,8.9,24.9,23.6,28.4,40.2l12.9,59.8H407.6z"/>
	<path display="inline" fill="none" stroke="#ED1C24" stroke-miterlimit="10" d="M306.3,415.3l100.2,61.6
		c12.2,7.5,20.9,19.7,23.9,33.8l10.3,47.7h-25l-7.4-34.9c-2.9-13.9-11.5-25.9-23.6-33.3l-83.4-50.9L306.3,415.3z"/>
	<circle display="inline" fill="none" stroke="#ED1C24" stroke-miterlimit="10" cx="293.8" cy="417" r="191.1"/>
	<path display="inline" fill="none" stroke="#ED1C24" stroke-miterlimit="10" d="M114.2,377.2c22.5-59,67.2-100.5,121-112.5
		c-38.7,23.1-55,48.8-63.9,76.2c6.2-13.6,32.6-54.4,86.2-60.7c11.9-1.4,28.7,2.5,28.7,11.1c0,8-27.6,45.4-27.6,45.4l126.7-66.3"/>
</g>
<g id="Layer_3_copy">
	<path d="M497.4,408.1c0,50.2-19.3,95.8-50.9,129.9l0,0c-0.6-3,0-6.1,1.8-8.6c23-31.6,36.6-70.4,36.6-112.4
		c0-53.4-21.9-101.7-57.3-136.4l-128.1,87.8c6.8,10.7,10.7,23.4,10.7,36.9c0,0.2,0,0.4,0,0.6c0,3.8-0.4,7.5-1,11.1l97.3,59.8
		c12.2,7.5,20.9,19.7,23.9,33.8l7,32.4l0.7,3.4l2,9.5c0.3,1.2-0.7,2.3-1.9,2.3h-6.7c-9.3,0-17.2-6.5-19.2-15.5l-4.1-19.4
		c-2.9-13.9-11.5-25.9-23.6-33.3l-83.4-50.9c-1.6,2.9-3.5,5.7-5.5,8.3c-2.6,3.4-5.6,6.6-8.8,9.5c-0.8,0.7-1.9-0.3-1.3-1.2
		c2.4-3.3,4.6-6.8,6.4-10.5c4.5-9.1,7-19.2,7-30c0-3.5-0.3-7-0.8-10.3v0c-1.6-10.5-5.6-20.3-11.5-28.6c-5.5-7.9-12.7-14.6-21-19.6
		c-10.2-6.1-22.2-9.6-35-9.6c-16.5,0-31.5,5.8-43.3,15.5c-0.5,0.4-1.1-0.2-0.7-0.7c12.7-15.8,32.2-25.9,54.1-25.9
		c12.1,0,23.4,3.1,33.3,8.5l98.5-67.5l-104.1,54.5c-2.5,1.3-5-1.6-3.4-3.9c8.1-11.6,21.1-30.9,21.1-36.4c0-8.5-16.8-12.4-28.7-11
		c-40.8,4.7-65.9,29.6-78.3,47.1c-0.9,1.3-2.9,0.1-2.2-1.3c9.9-21.9,26.5-42.5,58.2-61.4c-45.2,10.1-84,41-108.5,85.6
		c-0.7,1.3-2.6,0.4-2.2-0.9c12-37.2,35.1-69.4,65.4-92.7c32.2-24.8,72.7-39.6,116.5-39.6c39.4,0,76.1,12,106.5,32.4l6.6-4.5
		c5.4-3.7,13-2.3,16.7,3.1l5.7,8.3c3.4,4.9,2.6,11.4-1.6,15.4C475.5,306.4,497.4,354.7,497.4,408.1z"/>
	<path d="M275.6,405.7c3.8,18.5-3.6,35.6-16.7,45.7c-0.9,0.7-2.1-0.5-1.4-1.4c7.6-9.8,11.1-23,7.9-36.9c-3.6-16-16.2-28.7-32.2-32.4
		c-15.3-3.5-29.8,1-39.9,10.2c-0.4,0.4-1.1-0.2-0.8-0.7c9.8-14.9,28-23.7,47.8-19.7C258,374.1,272,388,275.6,405.7z"/>
</g>
</svg>
